<?xml version="1.0" encoding="UTF-8" standalone="no"?>
<svg width="896px" height="472px" viewBox="0 0 896 472" version="1.1" xmlns="http://www.w3.org/2000/svg" xmlns:xlink="http://www.w3.org/1999/xlink" xmlns:sketch="http://www.bohemiancoding.com/sketch/ns">
    <!-- Generator: Sketch 3.3.1 (12002) - http://www.bohemiancoding.com/sketch -->
    <title>Rectangle 1</title>
    <desc>Created with Sketch.</desc>
    <defs></defs>
    <g id="Page-1" stroke="none" stroke-width="1" fill="none" fill-rule="evenodd" sketch:type="MSPage">
        <g id="Artboard-1-Copy" sketch:type="MSArtboardGroup" fill-opacity="0.8" fill="#111111">
            <path d="M0,0 L896,0 L896,472 L0,472 L0,0 Z M236.304,257 L236.304,201.932 L249.408,201.932 L249.408,224.396 L270,201.932 L286.536,201.932 L267.036,222.368 L288.096,257 L272.574,257 L257.832,232.04 L249.408,240.854 L249.408,257 L236.304,257 Z M291.528,257 L291.528,201.932 L332.244,201.932 L332.244,212.618 L305.256,212.618 L305.256,222.602 L330.45,222.602 L330.45,233.054 L305.256,233.054 L305.256,246.158 L334.662,246.158 L334.662,257 L291.528,257 Z M341.916,257 L341.916,201.932 L382.632,201.932 L382.632,212.618 L355.644,212.618 L355.644,222.602 L380.838,222.602 L380.838,233.054 L355.644,233.054 L355.644,246.158 L385.05,246.158 L385.05,257 L341.916,257 Z M392.226,257 L392.226,201.932 L414.378,201.932 C416.770012,201.932 418.563994,201.945 419.76,201.971 C420.956006,201.997 422.52899,202.126999 424.479,202.361 C426.42901,202.595001 428.001994,202.945998 429.198,203.414 C430.394006,203.882002 431.641994,204.570995 432.942,205.481 C434.242007,206.391005 435.359995,207.521993 436.296,208.874 C438.37601,211.942015 439.416,215.711978 439.416,220.184 C439.416,223.304016 438.792006,226.163987 437.544,228.764 C436.659996,230.636009 435.490007,232.234993 434.034,233.561 C432.577993,234.887007 431.187007,235.887997 429.861,236.564 C428.534993,237.240003 426.85801,237.759998 424.83,238.124 C422.80199,238.488002 421.203006,238.709 420.033,238.787 C418.862994,238.865 417.23801,238.93 415.158,238.982 L406.032,238.982 L406.032,257 L392.226,257 Z M461.022,201.932 L475.374,201.932 L495.654,257 L480.99,257 L478.26,248.186 L457.98,248.186 L455.25,257 L440.586,257 L461.022,201.932 Z M501.192,257 L501.192,201.854 L514.92,201.854 L514.92,245.378 L536.448,245.378 L536.448,257 L501.192,257 Z M543.39,201.932 L557.118,201.932 L557.118,257 L543.39,257 L543.39,201.932 Z M588.552,241.088 L599.862,201.932 L614.526,201.932 L595.416,257 L581.376,257 L562.5,201.932 L577.164,201.932 L588.552,241.088 Z M619.908,257 L619.908,201.932 L660.624,201.932 L660.624,212.618 L633.636,212.618 L633.636,222.602 L658.83,222.602 L658.83,233.054 L633.636,233.054 L633.636,246.158 L663.042,246.158 L663.042,257 L619.908,257 Z" id="Rectangle-1" sketch:type="MSShapeGroup"></path>
        </g>
    </g>
</svg>